<svg xmlns="http://www.w3.org/2000/svg" version="1.1" xmlns:xlink="http://www.w3.org/1999/xlink" width="512" height="512" x="0" y="0" viewBox="0 0 64 64" style="enable-background:new 0 0 512 512" xml:space="preserve" class=""><g><path fill="#2563eb" d="M32 54.33c0 5.25-5.92 6.97-9.67 4.25-4.09-2.96-2.42-6.59-2.42-6.59-7.25-.25-5.5-7-5.5-7-8.22-1.67-3.92-9.13-3.92-9.13-2.25-.38-4.88-2.81-4.19-7.38.7-4.62 6.02-5.42 6.02-5.42s-3.34-2.75-1.18-7.45c1.92-4.19 7.1-4.14 7.1-4.14s-.54-4.92 4-6.75c2.1-.85 4.08-.64 5.71-.09 2.46.83 4.05 3.23 4.05 5.83v45.03zM32 54.33c0 5.25 5.92 6.97 9.67 4.25 4.09-2.96 2.42-6.59 2.42-6.59 7.25-.25 5.5-7 5.5-7 8.22-1.67 3.92-9.13 3.92-9.13 2.25-.38 4.88-2.81 4.19-7.38-.7-4.62-6.02-5.42-6.02-5.42s3.34-2.75 1.18-7.45c-1.92-4.19-7.1-4.14-7.1-4.14s.54-4.92-4-6.75c-1.94-.78-3.78-.67-5.33-.21-2.64.78-4.43 3.22-4.43 5.97V55.5z" opacity="1" data-original="#4d73af" class=""></path><circle cx="39.96" cy="20.2" r="2.67" fill="#0e3471" opacity="1" data-original="#7cfeec" class=""></circle><circle cx="49.28" cy="29.95" r="2.67" fill="#0e3471" opacity="1" data-original="#7cfeec" class=""></circle><circle cx="37.64" cy="47.82" r="2.67" fill="#0e3471" opacity="1" data-original="#7cfeec" class=""></circle><path fill="#0e3471" d="M41.33 11.78a2.67 2.67 0 1 1-5.339.001 2.67 2.67 0 0 1 5.339-.001z" opacity="1" data-original="#7cfeec" class=""></path><circle cx="47.78" cy="39.32" r="2.67" fill="#0e3471" opacity="1" data-original="#7cfeec" class=""></circle><path d="M26.29 60.86c-1.59 0-3.2-.5-4.54-1.48-2.91-2.11-3.37-4.73-3.11-6.51-1.88-.28-3.3-1.05-4.23-2.3-1.22-1.63-1.25-3.65-1.12-4.84-2.2-.62-3.68-1.76-4.41-3.38-.96-2.13-.31-4.51.24-5.88-2.45-1.05-4.41-3.97-3.78-8.15.54-3.58 3.38-5.16 5.23-5.82-1.02-1.6-1.75-4.18-.31-7.31 1.63-3.56 5.21-4.44 6.99-4.65.1-2.14 1.13-5.33 4.65-6.75 2.04-.82 4.19-.86 6.4-.11 2.8.96 4.7 3.69 4.7 6.78v45.03c0 .24-.08.46-.22.63-.45 1.73-1.56 3.13-3.19 3.96-1.03.53-2.16.78-3.3.78zm-8.07-48.39c-.27 0-4.57.06-6.17 3.55-1.79 3.91.8 6.17.91 6.27.3.25.42.66.32 1.04a1 1 0 0 1-.81.72c-.19.03-4.61.76-5.18 4.58-.61 4.07 1.68 5.96 3.37 6.24.32.05.6.26.74.56s.13.64-.04.93c-.02.03-1.67 2.98-.67 5.19.55 1.22 1.87 2.05 3.92 2.46.27.05.5.22.65.45s.19.52.12.78c-.01.02-.61 2.5.63 4.15.75 1 2.08 1.54 3.94 1.6.33.01.64.19.82.47.18.29.2.64.06.94-.05.11-1.24 2.94 2.1 5.36 1.68 1.22 4 1.43 5.76.53 1.5-.76 2.32-2.18 2.32-3.98V10.46c0-2.24-1.35-4.2-3.37-4.89-1.75-.59-3.44-.57-5.02.07-3.77 1.52-3.4 5.55-3.38 5.72.03.28-.06.57-.26.78a1 1 0 0 1-.74.33h-.02z" fill="#ffffff" opacity="1" data-original="#000000" class=""></path><path d="M19.66 26.77c-.3 0-.59-.13-.79-.38-2.65-3.35-6.13-2.41-6.27-2.37-.53.15-1.08-.15-1.24-.68-.15-.53.15-1.08.67-1.24.2-.06 4.9-1.39 8.41 3.05.34.43.27 1.06-.17 1.4-.17.15-.39.22-.61.22zM14.41 45.98h-.09a.993.993 0 0 1-.91-1.06c.01-.17.36-4.11 6.16-4.62a.98.98 0 0 1 1.08.91.992.992 0 0 1-.91 1.08c-4.04.35-4.33 2.68-4.34 2.78-.05.52-.49.91-.99.91zM21.83 35.56c-3.48 0-5.44-2.11-5.54-2.22A.997.997 0 1 1 17.77 32c.1.11 2.38 2.49 6.48 1.16.53-.17 1.09.12 1.26.64.17.53-.12 1.09-.64 1.26-1.11.36-2.13.5-3.04.5zM24.56 15.91c-.37 0-.72-.2-.9-.55-1.65-3.29-5.15-2.91-5.3-2.89a.994.994 0 0 1-1.11-.87 1 1 0 0 1 .86-1.12c1.74-.22 5.5.32 7.34 3.98.25.49.05 1.09-.45 1.34-.14.07-.29.11-.44.11zM32 29.6c-.55 0-1-.45-1-1 0-7.01-5-7.19-5.21-7.19-.55-.01-.99-.47-.98-1.02s.44-.96 1.02-.98c.07 0 7.17.25 7.17 9.19 0 .56-.45 1-1 1zM32 52.24c-.51 0-.94-.39-.99-.9-.01-.08-.2-1.74-1.7-2.89-1.36-1.04-3.37-1.35-5.98-.93-.55.09-1.06-.28-1.15-.83s.28-1.06.83-1.15c3.2-.52 5.74-.06 7.55 1.35 2.19 1.7 2.43 4.16 2.44 4.26.05.55-.36 1.04-.91 1.09H32z" fill="#ffffff" opacity="1" data-original="#000000" class=""></path><path d="M29.73 48.52c-.22 0-.44-.07-.62-.22-3.74-2.97-3.21-9.31-3.19-9.58a.998.998 0 1 1 1.99.17c0 .06-.45 5.54 2.44 7.83.43.34.5.97.16 1.41a.98.98 0 0 1-.78.39zM10.49 36.86a1.006 1.006 0 0 1-.85-1.53c1.29-2.09 1.95-4.21 1.96-4.23.16-.53.72-.82 1.25-.66s.82.72.66 1.25c-.03.1-.74 2.38-2.17 4.69a1 1 0 0 1-.85.48zM18.19 25.32c-.27 0-.54-.11-.73-.32-.1-.11-2.53-2.85-.38-6.92.26-.49.86-.68 1.35-.42s.68.86.42 1.35c-1.47 2.8.03 4.58.1 4.65.36.41.32 1.04-.08 1.41-.2.16-.44.25-.68.25zM37.71 60.86c-1.14 0-2.28-.26-3.3-.78-1.63-.83-2.74-2.23-3.19-3.96a.985.985 0 0 1-.22-.63V10.48c0-3.19 2.11-6.03 5.14-6.93 2.07-.61 4.08-.53 5.99.24 3.51 1.42 4.55 4.61 4.65 6.75 1.77.22 5.36 1.09 6.99 4.65 1.44 3.13.71 5.72-.31 7.31 1.86.66 4.69 2.25 5.23 5.82.63 4.18-1.33 7.1-3.78 8.15.55 1.37 1.2 3.75.23 5.88-.73 1.62-2.21 2.75-4.41 3.38.12 1.19.1 3.21-1.12 4.84-.93 1.25-2.36 2.02-4.24 2.3.26 1.78-.2 4.4-3.11 6.51a7.75 7.75 0 0 1-4.55 1.48zM33 54.33c0 1.8.82 3.21 2.32 3.98 1.77.9 4.08.69 5.76-.53 3.34-2.42 2.15-5.25 2.09-5.37a1.005 1.005 0 0 1 .88-1.41c1.87-.06 3.2-.61 3.95-1.61 1.22-1.64.63-4.12.62-4.14-.07-.27-.03-.55.12-.78s.38-.4.65-.45c2.05-.42 3.37-1.24 3.92-2.46 1-2.21-.66-5.16-.67-5.19-.16-.28-.18-.63-.04-.93s.42-.5.74-.56c1.69-.28 3.98-2.18 3.36-6.24-.58-3.82-5-4.55-5.19-4.58-.39-.06-.71-.34-.81-.72s.02-.79.33-1.04c.11-.09 2.7-2.35.91-6.26-1.62-3.54-6.02-3.56-6.18-3.55-.28 0-.56-.12-.74-.33-.19-.21-.28-.5-.25-.78.02-.17.38-4.2-3.38-5.72-1.48-.6-3.05-.66-4.67-.18-2.2.63-3.72 2.69-3.72 5z" fill="#ffffff" opacity="1" data-original="#000000" class=""></path><path d="M39.96 31.79H32c-.55 0-1-.45-1-1s.45-1 1-1h6.96v-6.92c0-.55.45-1 1-1s1 .45 1 1v7.92c0 .56-.45 1-1 1z" fill="#ffffff" opacity="1" data-original="#000000" class=""></path><path d="M39.96 23.87c-2.03 0-3.67-1.65-3.67-3.67s1.65-3.67 3.67-3.67c2.03 0 3.67 1.65 3.67 3.67s-1.65 3.67-3.67 3.67zm0-5.35c-.92 0-1.67.75-1.67 1.67s.75 1.67 1.67 1.67 1.67-.75 1.67-1.67-.75-1.67-1.67-1.67zM49.28 33.62c-2.03 0-3.67-1.65-3.67-3.67s1.65-3.67 3.67-3.67c2.03 0 3.67 1.65 3.67 3.67s-1.64 3.67-3.67 3.67zm0-5.35c-.92 0-1.67.75-1.67 1.67s.75 1.67 1.67 1.67 1.67-.75 1.67-1.67a1.66 1.66 0 0 0-1.67-1.67zM37.64 51.5c-2.03 0-3.67-1.65-3.67-3.67 0-2.03 1.65-3.67 3.67-3.67 2.03 0 3.67 1.65 3.67 3.67.01 2.02-1.64 3.67-3.67 3.67zm0-5.35c-.92 0-1.67.75-1.67 1.67s.75 1.67 1.67 1.67 1.67-.75 1.67-1.67c.01-.92-.75-1.67-1.67-1.67z" fill="#ffffff" opacity="1" data-original="#000000" class=""></path><path d="M46.61 30.95h-3.59c-.55 0-1-.45-1-1s.45-1 1-1h3.59c.55 0 1 .45 1 1s-.45 1-1 1zM38.65 15.46c-2.03 0-3.67-1.65-3.67-3.67s1.65-3.67 3.67-3.67c2.03 0 3.67 1.65 3.67 3.67s-1.64 3.67-3.67 3.67zm0-5.35c-.92 0-1.67.75-1.67 1.67s.75 1.67 1.67 1.67 1.67-.75 1.67-1.67a1.66 1.66 0 0 0-1.67-1.67z" fill="#ffffff" opacity="1" data-original="#000000" class=""></path><path d="M35.98 12.78H32c-.55 0-1-.45-1-1s.45-1 1-1h3.98c.55 0 1 .45 1 1 0 .56-.45 1-1 1zM47.78 42.99c-2.03 0-3.67-1.65-3.67-3.67 0-2.03 1.65-3.67 3.67-3.67 2.03 0 3.67 1.65 3.67 3.67.01 2.03-1.64 3.67-3.67 3.67zm0-5.34c-.92 0-1.67.75-1.67 1.67s.75 1.67 1.67 1.67 1.67-.75 1.67-1.67a1.66 1.66 0 0 0-1.67-1.67z" fill="#ffffff" opacity="1" data-original="#000000" class=""></path><path d="M45.11 40.32h-7.47c-.55 0-1-.45-1-1s.45-1 1-1h7.47c.55 0 1 .45 1 1s-.45 1-1 1z" fill="#ffffff" opacity="1" data-original="#000000" class=""></path><path d="M37.64 46.15c-.55 0-1-.45-1-1v-8.72H32c-.55 0-1-.45-1-1s.45-1 1-1h5.64c.55 0 1 .45 1 1v9.72c0 .55-.45 1-1 1zM48.76 18.88h-2.67c-.55 0-1-.45-1-1s.45-1 1-1h2.67c.55 0 1 .45 1 1s-.45 1-1 1z" fill="#ffffff" opacity="1" data-original="#000000" class=""></path></g></svg>